<?xml version="1.0" encoding="UTF-8" standalone="no"?>
<!-- Created with Inkscape (http://www.inkscape.org/) -->

<svg
   width="512"
   height="512"
   viewBox="0 0 512 512"
   version="1.1"
   id="svg5"
   xml:space="preserve"
   xmlns:xlink="http://www.w3.org/1999/xlink"
   xmlns="http://www.w3.org/2000/svg"
   xmlns:svg="http://www.w3.org/2000/svg"><defs
     id="defs2"><pattern
       xlink:href="#pattern272"
       id="pattern636"
       patternTransform="matrix(0.91333133,0,0,0.91333133,113.57044,102.48761)" /><clipPath
       clipPathUnits="userSpaceOnUse"
       id="clipPath803"><path
         id="path805"
         style="fill:#ff0000;fill-opacity:1;fill-rule:nonzero;stroke:none;stroke-width:0.264583"
         d="M 54.765649,27.687717 V 106.20592 H 132.76657 V 27.687717 Z m 3.096453,18.064012 c 0.223772,0.0046 0.456634,0.118642 0.645954,0.350882 0.449408,-0.626959 1.424152,-0.387482 1.586984,0.889868 0.02553,0.200335 0.01302,0.09788 0.03721,0.309028 0.03164,0.2998 0.05315,0.60212 0.138493,0.892966 0.07613,0.31868 0.134763,0.640713 0.211873,0.959115 0.110302,0.376547 0.289952,0.733507 0.33383,1.127064 -0.03574,0.419783 0.01098,0.658895 -0.447,0.968415 -0.45479,0.307358 -0.760524,0.143205 -1.162719,-0.05943 -0.0336,-0.01693 -0.186997,-0.166314 -0.219626,-0.197405 -0.282424,-0.274561 -0.567581,-0.546693 -0.828373,-0.842325 -0.286113,-0.337193 -0.513257,-0.670158 -0.618567,-1.107427 -0.08537,-0.306234 -0.164504,-0.614339 -0.238744,-0.923457 -0.08055,-0.293973 -0.174178,-0.585533 -0.224277,-0.886769 -0.160604,-0.965727 0.289992,-1.490721 0.784966,-1.480529 z M 57.37221,75.896142 c 0.09874,-0.0055 0.172167,0.120735 0.08681,0.289904 -0.08703,0.17259 -0.178252,0.345874 -0.243914,0.528135 -0.07285,0.20221 -0.101002,0.344273 -0.152445,0.555521 -0.0663,0.348375 -0.118832,0.701355 -0.132291,1.056265 -0.01289,0.339479 0.01482,0.676804 0.04496,1.01441 0.0096,0.101814 0.02093,0.20357 0.03204,0.305408 0.03547,-0.03731 0.07467,-0.05843 0.111619,-0.06098 0.0042,-2.65e-4 0.0083,-1.3e-4 0.01241,0 0.08476,0.0026 0.147879,0.09354 0.09043,0.245462 -0.05413,0.143218 -0.103354,0.288237 -0.154511,0.432532 v 5.3e-4 c 0.01016,0.140131 0.0168,0.280558 0.01654,0.421163 -2.64e-4,0.19761 -0.137758,0.259776 -0.223758,0.186553 -0.107095,0.331332 -0.198165,0.667766 -0.27337,1.007689 -0.05726,0.245822 -0.08882,0.494276 -0.09612,0.746207 -0.0038,0.126008 0.0013,0.252392 0.0062,0.378272 0.01109,0.287526 -0.277945,0.298887 -0.290939,0.01344 -0.06746,0.566791 -0.741481,0.605235 -0.90692,-0.139525 -0.01011,-0.04556 -0.02037,-0.09139 -0.03049,-0.136943 -0.0478,-0.295902 -0.07417,-0.594926 -0.11472,-0.891934 -0.05977,-0.486162 -0.126111,-0.972257 -0.132808,-1.462961 -0.0077,-0.315063 -0.01754,-0.631084 -0.0052,-0.946195 0.008,-0.201647 0.02934,-0.424934 0.04961,-0.625803 0.009,-0.08884 0.01924,-0.177379 0.02894,-0.266131 0.01318,-0.169021 0.02421,-0.271135 0.02532,-0.436153 5.29e-4,-0.0972 -0.0131,-0.194503 -0.01241,-0.291454 0,-0.0024 0.0019,0.0045 0.0031,0.0067 0.340614,0.626687 0.599231,-0.445045 0.766879,-0.45992 0.04274,-0.0038 0.0798,0.06111 0.110588,0.240295 0.05728,0.333417 0.0324,0.673537 0.0078,1.008724 -0.01053,0.09826 -0.02162,0.196744 -0.03152,0.295074 -0.019,0.189148 -0.03879,0.396325 -0.04599,0.586528 -0.01093,0.28833 -1.54e-4,0.57785 0.0067,0.866095 0.0064,0.461195 0.07043,0.918218 0.126608,1.375111 0.02315,0.206709 0.05283,0.412509 0.077,0.619083 0.02347,0.200882 0.0028,0.06743 0.03204,0.234095 0.0067,0.02825 0.01344,0.05649 0.02016,0.08475 0.0092,0.03879 0.01619,0.07603 0.02119,0.112138 -0.0011,-0.05718 -0.0043,-0.114316 -0.0026,-0.171566 0.0081,-0.270227 0.04154,-0.537292 0.102835,-0.800984 0.09507,-0.429167 0.205994,-0.855014 0.354502,-1.269172 0.03713,-0.1085 0.0778,-0.215754 0.115753,-0.324014 -0.02344,-0.285877 -0.06202,-0.571124 -0.08733,-0.856276 -0.0249,-0.281194 -0.04021,-0.401667 -0.04651,-0.686782 -0.01093,-0.496961 0.04154,-0.992153 0.141076,-1.478978 0.05945,-0.242205 0.08345,-0.368155 0.167431,-0.599964 0.07192,-0.198509 0.170569,-0.388226 0.268719,-0.574641 0.04624,-0.08782 0.104854,-0.126854 0.15658,-0.129709 z m 2.41794,4.049882 c 0.197705,0.004 0.417761,0.156829 0.531233,0.502295 0.04122,0.1255 0.07211,0.253077 0.06821,0.386541 -0.0034,0.04133 -0.0049,0.08292 -0.01035,0.124023 -0.02278,0.171744 -0.08963,0.333547 -0.136427,0.499195 -0.07983,0.30181 -0.126664,0.610814 -0.187584,0.916739 -0.10236,0.532402 -0.220885,1.063897 -0.273886,1.604036 -0.0021,0.07553 -0.01069,0.150924 -0.0062,0.226343 0.0045,0.07421 0.01937,0.147593 0.03307,0.220657 0.03088,0.164727 0.07449,0.329113 0.138491,0.484209 0.103571,0.250992 0.11312,0.466307 0.0646,0.622702 0.531106,0.283483 0.302268,0.939287 -0.461471,0.789615 -0.06719,-0.01318 -0.13472,-0.02429 -0.20257,-0.03359 -0.189529,-0.02931 -0.380111,-0.05637 -0.566375,-0.102836 -0.565206,-0.14102 -0.669634,-0.559887 -0.434081,-0.776697 -0.0044,-0.02318 -0.0098,-0.04622 -0.01188,-0.06976 -0.0087,-0.06403 -0.01561,-0.128204 -0.01913,-0.192754 -0.0032,-0.05606 -0.0052,-0.112379 -0.0078,-0.168463 -7.94e-4,-0.06207 2.64e-4,-0.124058 0.0041,-0.186036 0.0021,-0.03678 0.0058,-0.07339 0.0088,-0.11007 -0.206457,-0.205118 -0.190883,-0.466712 -0.0067,-0.606684 -0.01654,-0.159271 -0.03005,-0.318781 -0.03204,-0.479039 1.98e-4,-0.107979 0.0013,-0.216228 0.0072,-0.324011 0.01124,-0.200372 0.06523,-0.355148 0.141076,-0.465606 -0.118857,-0.407567 0.06794,-0.656791 0.318844,-0.656291 0.05015,1.03e-4 0.102774,0.01024 0.156061,0.03101 0.0044,-0.0099 0.0086,-0.02 0.01291,-0.02997 -0.01744,-0.104675 -0.03087,-0.210151 -0.03514,-0.31626 -0.0028,-0.08456 -0.01619,-0.227361 0.0067,-0.304892 h -5.3e-4 c 0.0438,-0.147 0.124172,-0.234958 0.188619,-0.241845 0.0019,-1.91e-4 0.0034,-5.29e-4 0.0052,-5.29e-4 0.05433,-0.0021 0.09651,0.056 0.09302,0.187068 -0.0027,0.102904 -0.0048,0.205179 -0.0026,0.307991 0.0048,-7.94e-4 0.0097,-0.0034 0.01447,-0.0036 0.02074,-0.0011 0.03948,0.0043 0.05633,0.01344 0.03637,-0.188757 0.07545,-0.377108 0.123505,-0.563272 0.02881,-0.108413 0.06811,-0.21341 0.09819,-0.321429 0.01027,-0.03688 0.02718,-0.0828 0.02066,-0.122473 -0.01177,-0.01024 -0.01458,-0.03005 -0.02066,-0.04444 -0.206444,-0.489717 0.03505,-0.801116 0.324011,-0.7953 z" /></clipPath><pattern
       patternUnits="userSpaceOnUse"
       width="311.89022"
       height="345.583"
       patternTransform="translate(100.05489,83.746316)"
       id="pattern272"><g
         id="g844"
         transform="matrix(3.4057333,0,0,2.5738593,-228.55406,-128.30409)"><g
           id="g821"
           transform="translate(12.342969,22.161198)"><path
             id="path277"
             style="fill:#0000ff;stroke-width:0.264583"
             d="M 93.507471,27.687716 A 39.258942,39.258942 0 0 0 59.10802,48.085954 c 0.03781,-0.0318 0.07555,-0.0572 0.10387,-0.06046 0.01212,-0.0014 0.02263,0.0011 0.03049,0.0088 0.32901,0.322307 0.525258,0.477426 0.448551,0.627869 0.03389,0.453511 -0.222477,0.66442 -0.45837,0.614433 -0.01418,0.03029 -0.02901,0.06013 -0.04651,0.08785 -0.03713,0.07888 -0.07243,0.15859 -0.109037,0.237711 0.02927,0.06767 0.05566,0.136171 0.06305,0.211874 0.0077,0.121178 0.003,0.240444 -0.02222,0.359668 -7.58e-4,0.0038 -0.0018,0.0075 -0.0026,0.01137 A 30.854528,30.854528 0 0 1 85.595292,35.057292 30.854528,30.854528 0 0 1 116.45026,65.911739 30.854528,30.854528 0 0 1 85.595292,96.766187 30.854528,30.854528 0 0 1 59.334363,81.939701 c -0.0044,0.01315 -0.0087,0.02622 -0.01344,0.03927 -0.01431,0.042 -0.02155,0.08543 -0.03049,0.128675 0.02452,0.01128 0.02497,0.04868 0.03772,0.07286 0.02233,0.07334 0.02659,0.149219 0.02429,0.225309 -0.0025,0.0652 -0.01127,0.129806 -0.02377,0.193786 -0.01312,0.06029 -0.03575,0.117602 -0.05891,0.174667 1.78e-4,0.009 2.69e-4,0.01788 5.17e-4,0.02687 3e-4,0.0668 -0.0022,0.133725 -0.0036,0.200505 -0.0013,0.06259 -0.0016,0.124987 -0.0021,0.187585 2.9e-4,0.05011 -0.004,0.100142 -0.0098,0.149862 -0.0049,0.05932 -0.0129,0.118527 -0.0186,0.177767 -0.0068,0.07258 -0.01064,0.145245 -0.01344,0.218075 -0.0026,0.05801 -0.0032,0.116139 -0.001,0.174149 0.0024,0.05769 0.0052,0.115386 0.0067,0.173116 0.0011,0.0571 0.0017,0.114456 0.0021,0.171566 2.38e-4,0.04636 -5.8e-5,0.09264 0,0.13901 -0.0021,0.0547 -0.0045,0.109094 -0.0062,0.163814 -0.0015,0.05912 -8.84e-4,0.11828 -0.0057,0.17725 -0.0047,0.05303 -0.01185,0.105667 -0.01705,0.158647 -0.0042,0.05474 -0.0051,0.109969 -0.0062,0.164847 -0.0049,0.04605 0.0036,0.09016 0.01292,0.134876 0.0092,0.04052 0.01996,0.08067 0.03204,0.120406 0.0112,0.03651 0.01756,0.07381 0.02222,0.111621 0.005,0.01077 0.0087,0.02176 0.01034,0.03307 0.0038,0.02563 0.0049,0.05171 0.0072,0.07751 -0.0031,0.0041 -0.006,0.0085 -0.0088,0.01292 1.59e-4,0.0062 3.73e-4,0.01242 5.16e-4,0.0186 9.5e-5,0.0049 -9.4e-5,0.01009 0,0.01499 0.0025,0.129377 -0.05452,0.201927 -0.118855,0.216524 A 39.258942,39.258942 0 0 0 93.507471,106.20592 39.258942,39.258942 0 0 0 132.76657,66.946818 39.258942,39.258942 0 0 0 93.507471,27.687716 Z M 59.127657,48.087504 c -0.0025,4.84e-4 -0.01416,0.0065 -0.0279,0.01447 a 39.258942,39.258942 0 0 0 -0.0031,0.0057 c 0.0022,-0.0014 0.0045,-0.0028 0.0067,-0.0041 0.0062,-0.0038 0.0124,-0.0075 0.0186,-0.01137 0.0056,-0.0035 0.0072,-0.0049 0.0057,-0.0047 z M 55.129451,59.38759 c -0.05618,0.106072 -0.113533,0.211419 -0.172082,0.316259 a 39.258942,39.258942 0 0 0 -0.0062,0.03462 c 0.02099,0.0064 0.04204,0.01286 0.06304,0.01912 0.03744,-0.123607 0.07515,-0.247236 0.115238,-0.370003 z m -0.150895,3.038574 c -8.48e-4,0.0017 -0.0017,0.0034 -0.0026,0.0052 6.5e-5,0.0048 4.45e-4,0.0096 5.17e-4,0.01447 a 30.854528,30.854528 0 0 1 0.0021,-0.01964 z m -0.19792,2.52491 c -0.0047,0.0089 -0.01026,0.01838 -0.01499,0.02739 0.0035,0.01764 0.0077,0.03511 0.01137,0.05271 a 30.854528,30.854528 0 0 1 0.0036,-0.0801 z m 4.255037,16.524573 c -0.0012,0.01999 -0.0016,0.03997 -0.0026,0.05994 0.01124,-0.0038 0.02288,-0.0069 0.03462,-0.0098 a 30.854528,30.854528 0 0 1 -0.03204,-0.05013 z m 0.131258,0.325561 c -0.0043,1.67e-4 -0.0086,0.0022 -0.01344,0.0047 0.0037,4.73e-4 0.0077,0.0013 0.01137,0.0016 0.0037,2e-4 0.01292,-0.0022 0.0098,-0.0041 -0.0023,-0.0014 -0.005,-0.0022 -0.0078,-0.0021 z m -0.102836,0.02791 c -0.0024,5.88e-4 -0.0049,9.77e-4 -0.0072,0.0015 6.93e-4,0.0043 0.0019,0.0086 0.0026,0.01292 0.0016,-0.0048 0.0031,-0.0096 0.0047,-0.01447 z m 0.212907,0.468705 c -0.0015,0.0019 -0.0033,0.0039 -0.0041,0.0052 -0.0016,0.0022 -0.0031,0.0045 -0.0047,0.0067 1.5e-5,3.43e-4 -1.5e-5,6.89e-4 0,10e-4 0.0033,-0.0033 0.006,-0.0084 0.0088,-0.01292 z"
             clip-path="url(#clipPath803)" /><path
             id="rect335"
             style="fill:#0000ff;stroke-width:0.248123"
             d="m 67.787393,40.162773 h 2.291908 c 4.631521,0 8.360146,3.728625 8.360146,8.360147 v 100.72164 c 0,4.63152 -3.728625,8.36015 -8.360146,8.36015 h -2.291908 c -4.631522,0 -8.360147,-3.72863 -8.360147,-8.36015 V 48.52292 c 0,-4.631522 3.728625,-8.360147 8.360147,-8.360147 z" /></g><g
           id="g828"
           transform="rotate(180,106.72613,105.90155)"><path
             id="path824"
             style="fill:#0000ff;stroke-width:0.264583"
             d="M 93.507471,27.687716 A 39.258942,39.258942 0 0 0 59.10802,48.085954 c 0.03781,-0.0318 0.07555,-0.0572 0.10387,-0.06046 0.01212,-0.0014 0.02263,0.0011 0.03049,0.0088 0.32901,0.322307 0.525258,0.477426 0.448551,0.627869 0.03389,0.453511 -0.222477,0.66442 -0.45837,0.614433 -0.01418,0.03029 -0.02901,0.06013 -0.04651,0.08785 -0.03713,0.07888 -0.07243,0.15859 -0.109037,0.237711 0.02927,0.06767 0.05566,0.136171 0.06305,0.211874 0.0077,0.121178 0.003,0.240444 -0.02222,0.359668 -7.58e-4,0.0038 -0.0018,0.0075 -0.0026,0.01137 A 30.854528,30.854528 0 0 1 85.595292,35.057292 30.854528,30.854528 0 0 1 116.45026,65.911739 30.854528,30.854528 0 0 1 85.595292,96.766187 30.854528,30.854528 0 0 1 59.334363,81.939701 c -0.0044,0.01315 -0.0087,0.02622 -0.01344,0.03927 -0.01431,0.042 -0.02155,0.08543 -0.03049,0.128675 0.02452,0.01128 0.02497,0.04868 0.03772,0.07286 0.02233,0.07334 0.02659,0.149219 0.02429,0.225309 -0.0025,0.0652 -0.01127,0.129806 -0.02377,0.193786 -0.01312,0.06029 -0.03575,0.117602 -0.05891,0.174667 1.78e-4,0.009 2.69e-4,0.01788 5.17e-4,0.02687 3e-4,0.0668 -0.0022,0.133725 -0.0036,0.200505 -0.0013,0.06259 -0.0016,0.124987 -0.0021,0.187585 2.9e-4,0.05011 -0.004,0.100142 -0.0098,0.149862 -0.0049,0.05932 -0.0129,0.118527 -0.0186,0.177767 -0.0068,0.07258 -0.01064,0.145245 -0.01344,0.218075 -0.0026,0.05801 -0.0032,0.116139 -0.001,0.174149 0.0024,0.05769 0.0052,0.115386 0.0067,0.173116 0.0011,0.0571 0.0017,0.114456 0.0021,0.171566 2.38e-4,0.04636 -5.8e-5,0.09264 0,0.13901 -0.0021,0.0547 -0.0045,0.109094 -0.0062,0.163814 -0.0015,0.05912 -8.84e-4,0.11828 -0.0057,0.17725 -0.0047,0.05303 -0.01185,0.105667 -0.01705,0.158647 -0.0042,0.05474 -0.0051,0.109969 -0.0062,0.164847 -0.0049,0.04605 0.0036,0.09016 0.01292,0.134876 0.0092,0.04052 0.01996,0.08067 0.03204,0.120406 0.0112,0.03651 0.01756,0.07381 0.02222,0.111621 0.005,0.01077 0.0087,0.02176 0.01034,0.03307 0.0038,0.02563 0.0049,0.05171 0.0072,0.07751 -0.0031,0.0041 -0.006,0.0085 -0.0088,0.01292 1.59e-4,0.0062 3.73e-4,0.01242 5.16e-4,0.0186 9.5e-5,0.0049 -9.4e-5,0.01009 0,0.01499 0.0025,0.129377 -0.05452,0.201927 -0.118855,0.216524 A 39.258942,39.258942 0 0 0 93.507471,106.20592 39.258942,39.258942 0 0 0 132.76657,66.946818 39.258942,39.258942 0 0 0 93.507471,27.687716 Z M 59.127657,48.087504 c -0.0025,4.84e-4 -0.01416,0.0065 -0.0279,0.01447 a 39.258942,39.258942 0 0 0 -0.0031,0.0057 c 0.0022,-0.0014 0.0045,-0.0028 0.0067,-0.0041 0.0062,-0.0038 0.0124,-0.0075 0.0186,-0.01137 0.0056,-0.0035 0.0072,-0.0049 0.0057,-0.0047 z M 55.129451,59.38759 c -0.05618,0.106072 -0.113533,0.211419 -0.172082,0.316259 a 39.258942,39.258942 0 0 0 -0.0062,0.03462 c 0.02099,0.0064 0.04204,0.01286 0.06304,0.01912 0.03744,-0.123607 0.07515,-0.247236 0.115238,-0.370003 z m -0.150895,3.038574 c -8.48e-4,0.0017 -0.0017,0.0034 -0.0026,0.0052 6.5e-5,0.0048 4.45e-4,0.0096 5.17e-4,0.01447 a 30.854528,30.854528 0 0 1 0.0021,-0.01964 z m -0.19792,2.52491 c -0.0047,0.0089 -0.01026,0.01838 -0.01499,0.02739 0.0035,0.01764 0.0077,0.03511 0.01137,0.05271 a 30.854528,30.854528 0 0 1 0.0036,-0.0801 z m 4.255037,16.524573 c -0.0012,0.01999 -0.0016,0.03997 -0.0026,0.05994 0.01124,-0.0038 0.02288,-0.0069 0.03462,-0.0098 a 30.854528,30.854528 0 0 1 -0.03204,-0.05013 z m 0.131258,0.325561 c -0.0043,1.67e-4 -0.0086,0.0022 -0.01344,0.0047 0.0037,4.73e-4 0.0077,0.0013 0.01137,0.0016 0.0037,2e-4 0.01292,-0.0022 0.0098,-0.0041 -0.0023,-0.0014 -0.005,-0.0022 -0.0078,-0.0021 z m -0.102836,0.02791 c -0.0024,5.88e-4 -0.0049,9.77e-4 -0.0072,0.0015 6.93e-4,0.0043 0.0019,0.0086 0.0026,0.01292 0.0016,-0.0048 0.0031,-0.0096 0.0047,-0.01447 z m 0.212907,0.468705 c -0.0015,0.0019 -0.0033,0.0039 -0.0041,0.0052 -0.0016,0.0022 -0.0031,0.0045 -0.0047,0.0067 1.5e-5,3.43e-4 -1.5e-5,6.89e-4 0,10e-4 0.0033,-0.0033 0.006,-0.0084 0.0088,-0.01292 z"
             clip-path="url(#clipPath803)" /><path
             id="path826"
             style="fill:#0000ff;stroke-width:0.248123"
             d="m 67.787393,40.162773 h 2.291908 c 4.631521,0 8.360146,3.728625 8.360146,8.360147 v 100.72164 c 0,4.63152 -3.728625,8.36015 -8.360146,8.36015 h -2.291908 c -4.631522,0 -8.360147,-3.72863 -8.360147,-8.36015 V 48.52292 c 0,-4.631522 3.728625,-8.360147 8.360147,-8.360147 z" /></g></g></pattern></defs><g
     id="layer1"><g
       id="g1560"><path
         id="rect281"
         style="fill:url(#pattern636);stroke-width:0.913331"
         d="M 113.57047,102.4876 H 398.4296 V 418.11938 H 113.57047 Z" /><path
         id="path634"
         style="fill:#0000ff;stroke-width:1.68922"
         d="M 256,36.457031 A 223.84665,223.84665 0 0 0 32.154297,260.30273 a 223.84665,223.84665 0 0 0 8.306641,59.57422 c 2.742867,-0.73312 5.48866,-1.45469 8.228515,-2.19922 6.797142,-1.96119 13.60604,-3.86071 20.449219,-5.63281 A 194.69119,194.69119 0 0 1 61.625,260.27344 194.69119,194.69119 0 0 1 256.31641,65.582031 194.69119,194.69119 0 0 1 429.70703,171.73633 c 0.1457,-0.0249 0.0324,-0.006 0.18945,-0.0312 -0.20446,-0.19454 0.51984,-0.22021 0.78516,-0.31641 1.06938,-0.38783 2.14617,-0.75782 3.21875,-1.13672 7.73061,-2.51239 15.45176,-5.05603 23.17383,-7.5957 A 223.84665,223.84665 0 0 0 256,36.457031 Z M 467.47461,188.37891 c -8.13379,2.67571 -16.26775,5.34932 -24.41211,7.99023 -0.86116,0.29935 -1.72062,0.61506 -2.58203,0.92383 a 194.69119,194.69119 0 0 1 10.52734,62.98047 194.69119,194.69119 0 0 1 -194.6914,194.6914 A 194.69119,194.69119 0 0 1 78.511719,338.19922 c -7.56048,1.91482 -15.062869,4.03059 -22.564453,6.1875 -2.085107,0.56649 -4.174979,1.11337 -6.261719,1.67383 A 223.84665,223.84665 0 0 0 256,484.15039 223.84665,223.84665 0 0 0 479.8457,260.30273 223.84665,223.84665 0 0 0 467.47461,188.37891 Z" /></g><path
       style="fill:none;fill-rule:evenodd;stroke:#000000;stroke-width:1px;stroke-linecap:butt;stroke-linejoin:miter;stroke-opacity:1"
       d="m -208.71111,70.156189 1.06257,0.585059"
       id="path1194" /><path
       style="fill:none;fill-rule:evenodd;stroke:#000000;stroke-width:1px;stroke-linecap:butt;stroke-linejoin:miter;stroke-opacity:1"
       d="m -206.51256,70.214503 -0.89481,-0.49631"
       id="path1196" /></g></svg>
